<?xml version="1.0" standalone="no"?>
<!DOCTYPE svg PUBLIC "-//W3C//DTD SVG 20010904//EN"
 "http://www.w3.org/TR/2001/REC-SVG-20010904/DTD/svg10.dtd">
<svg version="1.0" xmlns="http://www.w3.org/2000/svg"
 width="176.000000pt" height="48.000000pt" viewBox="0 0 176.000000 48.000000"
 preserveAspectRatio="xMidYMid meet">

<g transform="translate(0.000000,48.000000) scale(0.100000,-0.100000)"
fill="#000000" stroke="none">
<path d="M180 316 c0 -104 4 -166 10 -166 14 0 14 317 0 325 -7 4 -10 -52 -10
-159z"/>
<path d="M240 316 c0 -104 4 -166 10 -166 14 0 14 317 0 325 -7 4 -10 -52 -10
-159z"/>
<path d="M460 425 c0 -34 -1 -35 -40 -35 -29 0 -40 -4 -40 -15 0 -11 11 -15
40 -15 l40 0 0 -89 c0 -91 11 -121 44 -121 18 0 46 33 46 53 0 24 -15 21 -33
-5 -21 -32 -30 -18 -35 52 -6 87 1 106 43 114 41 8 37 26 -6 26 -27 0 -29 3
-29 35 0 24 -5 35 -15 35 -10 0 -15 -11 -15 -35z"/>
<path d="M580 392 c0 -27 21 -44 37 -31 23 20 16 49 -12 49 -17 0 -25 -5 -25
-18z"/>
<path d="M1212 324 c-30 -21 -28 -65 3 -102 14 -17 25 -33 25 -36 0 -13 -38
-5 -44 9 -7 19 -26 20 -26 2 0 -36 63 -60 88 -35 19 19 14 38 -18 75 -34 38
-36 46 -15 63 16 14 35 6 35 -16 0 -8 5 -14 11 -14 17 0 5 42 -16 56 -18 12
-24 11 -43 -2z"/>
<path d="M1341 314 c-25 -32 -28 -99 -6 -131 38 -54 103 -20 112 57 9 84 -61
132 -106 74z m69 -19 c17 -20 6 -86 -17 -103 -15 -11 -20 -10 -30 5 -25 33
-10 113 21 113 8 0 19 -7 26 -15z"/>
<path d="M1740 329 c0 -6 -9 -8 -21 -4 -54 18 -95 -30 -82 -96 7 -36 49 -72
75 -64 16 6 18 0 18 -42 0 -28 -7 -58 -16 -71 -20 -29 -56 -26 -64 6 -3 13 -9
23 -15 22 -13 -1 -9 -48 6 -66 19 -24 69 -13 93 19 19 25 21 45 24 168 2 94 0
139 -7 139 -6 0 -11 -5 -11 -11z m-10 -81 c0 -28 -18 -58 -35 -58 -16 0 -35
30 -35 57 0 10 7 29 17 42 l16 24 19 -23 c10 -12 18 -31 18 -42z"/>
<path d="M39 320 c-46 -27 -48 -127 -3 -156 21 -15 27 -15 46 -2 20 14 24 13
38 -5 16 -19 17 -15 17 70 1 86 0 91 -21 90 -11 -1 -30 2 -41 6 -11 3 -27 2
-36 -3z m49 -54 c5 -40 -5 -73 -25 -80 -34 -13 -47 62 -16 96 22 24 37 18 41
-16z"/>
<path d="M642 246 c2 -52 7 -81 16 -84 8 -2 12 11 12 48 0 52 13 90 30 90 6 0
10 -29 10 -65 0 -36 4 -65 8 -65 5 0 13 28 18 62 13 87 32 88 36 1 4 -85 22
-89 26 -6 4 93 -3 101 -88 100 l-71 -1 3 -80z"/>
<path d="M888 318 c-24 -8 -58 -59 -58 -88 0 -24 30 -68 52 -73 25 -7 87 19
95 40 9 24 -5 26 -33 4 -33 -26 -60 -27 -74 -2 -14 27 -13 34 5 27 34 -13 98
45 81 73 -13 21 -41 28 -68 19z m37 -28 c9 -15 -14 -40 -36 -40 -21 0 -25 20
-7 38 15 15 35 15 43 2z"/>
<path d="M1488 270 c-1 -33 -2 -70 -2 -82 -2 -41 22 -30 29 14 9 54 33 101 48
95 8 -2 11 -24 9 -63 -3 -46 0 -63 12 -73 14 -12 16 -5 16 67 0 89 -12 108
-57 91 -13 -5 -25 -4 -28 1 -15 24 -25 5 -27 -50z"/>
<path d="M584 307 c-10 -27 1 -150 14 -155 9 -3 12 18 12 82 0 52 -4 86 -10
86 -6 0 -13 -6 -16 -13z"/>
</g>
</svg>
