<?xml version="1.0" standalone="no"?>
<!DOCTYPE svg PUBLIC "-//W3C//DTD SVG 20010904//EN"
 "http://www.w3.org/TR/2001/REC-SVG-20010904/DTD/svg10.dtd">
<svg version="1.0" xmlns="http://www.w3.org/2000/svg"
 width="100.000000pt" height="39.000000pt" viewBox="0 0 100.000000 39.000000"
 preserveAspectRatio="xMidYMid meet">

<g transform="translate(0.000000,39.000000) scale(0.100000,-0.100000)"
fill="#000000" stroke="none">
<path d="M100 385 c0 -3 9 -18 20 -33 56 -76 36 -286 -30 -322 -11 -6 -18 -15
-15 -21 4 -5 14 -5 26 2 54 28 91 165 71 264 -11 55 -44 115 -63 115 -5 0 -9
-2 -9 -5z"/>
<path d="M10 207 c0 -19 10 -27 26 -20 21 8 17 33 -6 33 -11 0 -20 -6 -20 -13z"/>
<path d="M7 143 c-14 -13 -6 -33 13 -33 13 0 20 7 20 20 0 19 -20 27 -33 13z"/>
</g>
</svg>
