<?xml version="1.0" standalone="no"?>
<!DOCTYPE svg PUBLIC "-//W3C//DTD SVG 20010904//EN"
 "http://www.w3.org/TR/2001/REC-SVG-20010904/DTD/svg10.dtd">
<svg version="1.0" xmlns="http://www.w3.org/2000/svg"
 width="102.000000pt" height="27.000000pt" viewBox="0 0 102.000000 27.000000"
 preserveAspectRatio="xMidYMid meet">

<g transform="translate(0.000000,27.000000) scale(0.100000,-0.100000)"
fill="#000000" stroke="none">
<path d="M118 250 c-4 -14 -8 -44 -8 -67 l0 -43 -40 0 -40 0 0 50 c0 28 -4 50
-9 50 -9 0 -21 -95 -21 -166 0 -59 18 -56 22 4 l3 47 44 3 44 3 -6 -60 c-4
-33 -3 -63 2 -66 13 -8 23 86 19 185 -2 57 -5 77 -10 60z"/>
<path d="M349 263 c21 -4 23 -9 17 -41 -3 -21 -6 -69 -6 -109 0 -69 -1 -72
-27 -81 l-28 -10 25 -1 c14 0 43 4 65 8 32 7 34 9 13 10 -27 1 -28 3 -28 59 0
92 11 162 26 162 7 0 15 -8 17 -17 4 -14 5 -12 6 5 1 20 -3 22 -51 21 -29 -1
-42 -4 -29 -6z"/>
<path d="M530 205 c-12 -36 -24 -65 -26 -65 -3 0 -10 13 -15 30 -13 36 -24 38
-33 8 -9 -36 -7 -98 4 -98 6 0 10 19 10 43 l1 42 15 -29 c18 -32 26 -27 45 29
l14 40 5 -82 c8 -123 20 -112 20 20 0 64 -4 118 -9 121 -5 4 -19 -23 -31 -59z"/>
<path d="M698 263 c19 -4 23 -9 18 -26 -3 -12 -6 -61 -6 -109 0 -85 0 -86 -27
-96 l-28 -10 25 -1 c14 0 43 4 65 8 32 7 34 9 13 10 l-28 1 0 79 c0 107 7 139
34 144 11 2 -4 4 -34 4 -30 0 -44 -2 -32 -4z"/>
<path d="M793 223 c-33 -13 -39 -137 -8 -163 11 -9 12 -6 3 24 -13 40 -6 66
18 66 14 0 16 -8 12 -51 -3 -29 -2 -45 3 -37 5 7 9 32 9 56 0 38 -2 42 -24 42
-24 0 -24 2 -14 32 11 30 12 30 25 12 15 -19 15 -19 11 0 -3 21 -16 27 -35 19z"/>
<path d="M864 194 c-23 -35 -9 -98 23 -102 18 -3 24 4 33 39 20 74 -20 119
-56 63z m46 -27 c0 -33 -11 -67 -21 -67 -10 0 -12 83 -3 93 11 11 24 -3 24
-26z"/>
<path d="M957 213 c-4 -3 -6 -47 -6 -97 1 -55 4 -79 8 -61 5 23 11 29 28 27
12 -2 24 2 28 7 3 6 0 8 -8 5 -23 -9 -30 14 -13 41 9 13 16 33 16 43 0 31 -35
54 -53 35z m41 -29 c1 -10 -4 -28 -12 -39 -14 -19 -15 -17 -16 23 0 31 4 42
13 40 6 -3 13 -13 15 -24z"/>
<path d="M156 162 c-10 -41 2 -121 15 -101 10 16 10 73 0 109 -7 25 -8 24 -15
-8z"/>
<path d="M207 74 c-4 -4 -7 -14 -7 -23 0 -11 3 -12 11 -4 6 6 10 16 7 23 -2 6
-7 8 -11 4z"/>
<path d="M868 63 c12 -2 30 -2 40 0 9 3 -1 5 -23 4 -22 0 -30 -2 -17 -4z"/>
</g>
</svg>
